<svg width="3690" height="2273" xmlns="http://www.w3.org/2000/svg" xmlns:xlink="http://www.w3.org/1999/xlink" xml:space="preserve" overflow="hidden"><g transform="translate(-68 18)"><g><text fill="#000000" fill-opacity="1" font-family="Georgia,Georgia_MSFontService,sans-serif" font-style="normal" font-variant="normal" font-weight="400" font-stretch="normal" font-size="110" text-anchor="start" direction="ltr" writing-mode="lr-tb" unicode-bidi="normal" text-decoration="none" transform="matrix(1 0 0 1 138.875 201)">Experiment overview</text><text fill="#548235" fill-opacity="1" font-family="Georgia,Georgia_MSFontService,sans-serif" font-style="normal" font-variant="normal" font-weight="700" font-stretch="normal" font-size="92" text-anchor="start" direction="ltr" writing-mode="lr-tb" unicode-bidi="normal" text-decoration="none" transform="matrix(1 0 0 1 1373.62 481)">Set size</text><text fill="#C55A11" fill-opacity="1" font-family="Georgia,Georgia_MSFontService,sans-serif" font-style="normal" font-variant="normal" font-weight="700" font-stretch="normal" font-size="92" text-anchor="start" direction="ltr" writing-mode="lr-tb" unicode-bidi="normal" text-decoration="none" transform="matrix(1 0 0 1 1390.81 1154)">Time</text><text fill="#C55A11" fill-opacity="1" font-family="Georgia,Georgia_MSFontService,sans-serif" font-style="normal" font-variant="normal" font-weight="700" font-stretch="normal" font-size="73" text-anchor="start" direction="ltr" writing-mode="lr-tb" unicode-bidi="normal" text-decoration="none" transform="matrix(1 0 0 1 1390.81 1341)">(encoding time </text><text fill="#C55A11" fill-opacity="1" font-family="DengXian,DengXian_MSFontService,sans-serif" font-style="normal" font-variant="normal" font-weight="700" font-stretch="normal" font-size="73" text-anchor="start" direction="ltr" writing-mode="lr-tb" unicode-bidi="normal" text-decoration="none" transform="matrix(1 0 0 1 1977.48 1341)">×</text><text fill="#C55A11" fill-opacity="1" font-family="Georgia,Georgia_MSFontService,sans-serif" font-style="normal" font-variant="normal" font-weight="700" font-stretch="normal" font-size="73" text-anchor="start" direction="ltr" writing-mode="lr-tb" unicode-bidi="normal" text-decoration="none" transform="matrix(1 0 0 1 2047.38 1341)">delay)</text><text fill="#548235" fill-opacity="1" font-family="Georgia,Georgia_MSFontService,sans-serif" font-style="normal" font-variant="normal" font-weight="700" font-stretch="normal" font-size="92" text-anchor="start" direction="ltr" writing-mode="lr-tb" unicode-bidi="normal" text-decoration="none" transform="matrix(1 0 0 1 2618 484)">Set size</text><text fill="#C55A11" fill-opacity="1" font-family="Georgia,Georgia_MSFontService,sans-serif" font-style="normal" font-variant="normal" font-weight="700" font-stretch="normal" font-size="92" text-anchor="start" direction="ltr" writing-mode="lr-tb" unicode-bidi="normal" text-decoration="none" transform="matrix(1 0 0 1 2635.19 1158)">Time</text><text fill="#C55A11" fill-opacity="1" font-family="Georgia,Georgia_MSFontService,sans-serif" font-style="normal" font-variant="normal" font-weight="700" font-stretch="normal" font-size="73" text-anchor="start" direction="ltr" writing-mode="lr-tb" unicode-bidi="normal" text-decoration="none" transform="matrix(1 0 0 1 2635.19 1345)">(encoding time </text><text fill="#C55A11" fill-opacity="1" font-family="DengXian,DengXian_MSFontService,sans-serif" font-style="normal" font-variant="normal" font-weight="700" font-stretch="normal" font-size="73" text-anchor="start" direction="ltr" writing-mode="lr-tb" unicode-bidi="normal" text-decoration="none" transform="matrix(1 0 0 1 3221.85 1345)">×</text><text fill="#C55A11" fill-opacity="1" font-family="Georgia,Georgia_MSFontService,sans-serif" font-style="normal" font-variant="normal" font-weight="700" font-stretch="normal" font-size="73" text-anchor="start" direction="ltr" writing-mode="lr-tb" unicode-bidi="normal" text-decoration="none" transform="matrix(1 0 0 1 3291.75 1345)">delay)</text><path d="M1836.5 461.208 2496 461.209 2496 465.792 1836.5 465.792ZM2491.42 440.584 2537.25 463.5 2491.42 486.417Z" fill="#000000" fill-rule="nonzero" fill-opacity="1"/><path d="M1845.04 492.799 2508.3 1091.71 2505.22 1095.11 1841.96 496.201ZM2518.72 1073.33 2537.38 1121.05 2488 1107.35Z" fill="#000000" fill-rule="nonzero" fill-opacity="1"/><path d="M1.4866-1.74406 691.968 586.808 688.994 590.296-1.4866 1.74406ZM701.86 568.139 721.875 615.312 672.128 603.021Z" fill="#000000" fill-rule="nonzero" fill-opacity="1" transform="matrix(1 0 0 -1 1818.5 1113.81)"/><path d="M1819.5 1135.21 2479 1135.21 2479 1139.79 1819.5 1139.79ZM2474.42 1114.58 2520.25 1137.5 2474.42 1160.42Z" fill="#000000" fill-rule="nonzero" fill-opacity="1"/><text fill="#000000" fill-opacity="1" font-family="Georgia,Georgia_MSFontService,sans-serif" font-style="normal" font-variant="normal" font-weight="700" font-stretch="normal" font-size="92" text-anchor="start" direction="ltr" writing-mode="lr-tb" unicode-bidi="normal" text-decoration="none" transform="matrix(1 0 0 1 2178 439)">1</text><text fill="#000000" fill-opacity="1" font-family="Georgia,Georgia_MSFontService,sans-serif" font-style="normal" font-variant="normal" font-weight="700" font-stretch="normal" font-size="92" text-anchor="start" direction="ltr" writing-mode="lr-tb" unicode-bidi="normal" text-decoration="none" transform="matrix(1 0 0 1 1944.25 694)">2</text><text fill="#000000" fill-opacity="1" font-family="Georgia,Georgia_MSFontService,sans-serif" font-style="normal" font-variant="normal" font-weight="700" font-stretch="normal" font-size="92" text-anchor="start" direction="ltr" writing-mode="lr-tb" unicode-bidi="normal" text-decoration="none" transform="matrix(1 0 0 1 1940.81 941)">3</text><text fill="#000000" fill-opacity="1" font-family="Georgia,Georgia_MSFontService,sans-serif" font-style="normal" font-variant="normal" font-weight="700" font-stretch="normal" font-size="92" text-anchor="start" direction="ltr" writing-mode="lr-tb" unicode-bidi="normal" text-decoration="none" transform="matrix(1 0 0 1 2150.5 1209)">4</text><text fill="#000000" fill-opacity="1" font-family="Georgia,Georgia_MSFontService,sans-serif" font-style="normal" font-variant="normal" font-weight="400" font-stretch="normal" font-size="92" text-anchor="start" direction="ltr" writing-mode="lr-tb" unicode-bidi="normal" text-decoration="none" transform="matrix(1 0 0 1 1559.25 1735)">40 participants </text><text fill="#000000" fill-opacity="1" font-family="Georgia,Georgia_MSFontService,sans-serif" font-style="normal" font-variant="normal" font-weight="400" font-stretch="normal" font-size="73" text-anchor="start" direction="ltr" writing-mode="lr-tb" unicode-bidi="normal" text-decoration="none" transform="matrix(1 0 0 1 2199.2 1735)">(26 females, 18</text><text fill="#000000" fill-opacity="1" font-family="Georgia,Georgia_MSFontService,sans-serif" font-style="normal" font-variant="normal" font-weight="400" font-stretch="normal" font-size="73" text-anchor="start" direction="ltr" writing-mode="lr-tb" unicode-bidi="normal" text-decoration="none" transform="matrix(1 0 0 1 2689.61 1735)">-</text><text fill="#000000" fill-opacity="1" font-family="Georgia,Georgia_MSFontService,sans-serif" font-style="normal" font-variant="normal" font-weight="400" font-stretch="normal" font-size="73" text-anchor="start" direction="ltr" writing-mode="lr-tb" unicode-bidi="normal" text-decoration="none" transform="matrix(1 0 0 1 2717.11 1735)">24 years old)</text><text fill="#000000" fill-opacity="1" font-family="Georgia,Georgia_MSFontService,sans-serif" font-style="normal" font-variant="normal" font-weight="400" font-stretch="normal" font-size="92" text-anchor="start" direction="ltr" writing-mode="lr-tb" unicode-bidi="normal" text-decoration="none" transform="matrix(1 0 0 1 1559.25 1955)">2 experiments on separate days</text><text fill="#000000" fill-opacity="1" font-family="Georgia,Georgia_MSFontService,sans-serif" font-style="normal" font-variant="normal" font-weight="400" font-stretch="normal" font-size="92" text-anchor="start" direction="ltr" writing-mode="lr-tb" unicode-bidi="normal" text-decoration="none" transform="matrix(1 0 0 1 1559.25 2175)">4~6 h in total </text><text fill="#000000" fill-opacity="1" font-family="Georgia,Georgia_MSFontService,sans-serif" font-style="normal" font-variant="normal" font-weight="400" font-stretch="normal" font-size="73" text-anchor="start" direction="ltr" writing-mode="lr-tb" unicode-bidi="normal" text-decoration="none" transform="matrix(1 0 0 1 2131.02 2175)">(800/810 trials for each experiment)</text><path d="M1400.7 1682.84C1400.7 1666.39 1412.95 1653 1428 1653 1443.05 1653 1455.3 1666.39 1455.3 1682.84 1455.3 1699.29 1443.05 1712.67 1428 1712.67 1412.95 1712.67 1400.7 1699.29 1400.7 1682.84ZM1378 1759.85C1378.59 1752.63 1381.76 1727.07 1406.12 1713.37 1412.15 1718.56 1419.74 1721.68 1428 1721.68 1436.3 1721.68 1443.93 1718.53 1449.99 1713.3 1474.46 1726.93 1477.4 1752.31 1478 1759.85 1477.86 1760 1378.14 1759.86 1378 1759.85Z" fill="#8FAADC" fill-rule="evenodd" fill-opacity="1"/><path d="M1479.96 1889 1380.02 1889C1375.61 1889 1372 1892.28 1372 1896.31L1372 1950.97C1372 1954.98 1375.61 1958.27 1380.02 1958.27L1426.65 1958.27C1426.39 1958.42 1426.17 1958.59 1425.95 1958.79L1410.89 1972.49 1400.11 1972.49C1397.83 1972.49 1395.99 1974.18 1395.99 1976.25 1395.99 1978.32 1397.83 1980 1400.11 1980L1461.38 1980C1463.66 1980 1465.51 1978.32 1465.51 1976.25 1465.51 1974.18 1463.66 1972.49 1461.38 1972.49L1446.84 1972.49 1431.95 1958.91C1431.9 1958.86 1431.86 1958.81 1431.8 1958.76 1431.57 1958.55 1431.34 1958.37 1431.08 1958.24L1479.98 1958.24C1484.39 1958.24 1488 1954.95 1488 1950.94L1488 1896.31C1487.98 1892.28 1484.37 1889 1479.96 1889Z" fill="#A9D18E" fill-rule="evenodd" fill-opacity="1"/><path d="M1437.24 2155.94 1437.24 2129.5C1437.24 2125.71 1434.17 2122.63 1430.36 2122.63 1426.56 2122.63 1423.48 2125.71 1423.48 2129.5L1423.48 2163.88 1453.26 2181.06C1456.55 2182.95 1460.76 2181.79 1462.62 2178.47 1464.48 2175.21 1463.37 2171.05 1460.12 2169.15L1437.24 2155.94ZM1430 2210C1399.63 2210 1375 2185.38 1375 2154.99 1375 2124.61 1399.63 2100 1430 2100 1460.37 2100 1485 2124.61 1485 2154.99 1485 2185.38 1460.39 2210 1430 2210Z" fill="#F4B183" fill-rule="evenodd" fill-opacity="1"/></g></g></svg>